<svg width="14" height="14" viewBox="0 0 14 14" fill="none" xmlns="http://www.w3.org/2000/svg">
<path d="M6.83952 0.333252C5.52098 0.333252 4.23205 0.724245 3.13572 1.45679C2.03939 2.18933 1.18491 3.23052 0.680324 4.4487C0.17574 5.66687 0.0437179 7.00731 0.300953 8.30052C0.558188 9.59373 1.19313 10.7816 2.12548 11.714C3.05783 12.6463 4.24571 13.2813 5.53892 13.5385C6.83213 13.7957 8.17257 13.6637 9.39075 13.1591C10.6089 12.6545 11.6501 11.8 12.3827 10.7037C13.1152 9.60739 13.5062 8.31846 13.5062 6.99992C13.5062 6.12444 13.3337 5.25753 12.9987 4.4487C12.6637 3.63986 12.1726 2.90493 11.5536 2.28587C10.9345 1.66682 10.1996 1.17575 9.39075 0.840722C8.58191 0.50569 7.715 0.333252 6.83952 0.333252ZM6.83952 12.3333C5.78469 12.3333 4.75354 12.0205 3.87648 11.4344C2.99942 10.8484 2.31583 10.0154 1.91216 9.0409C1.5085 8.06636 1.40288 6.994 1.60867 5.95944C1.81445 4.92487 2.32241 3.97456 3.06828 3.22868C3.81417 2.4828 4.76447 1.97485 5.79904 1.76906C6.83361 1.56328 7.90596 1.66889 8.8805 2.07256C9.85504 2.47623 10.688 3.15982 11.274 4.03688C11.8601 4.91394 12.1729 5.94508 12.1729 6.99992C12.1729 8.41441 11.611 9.77096 10.6108 10.7712C9.61056 11.7713 8.25401 12.3333 6.83952 12.3333ZM9.50619 6.33325H4.17285C3.99604 6.33325 3.82647 6.40349 3.70145 6.52851C3.57643 6.65354 3.50619 6.82311 3.50619 6.99992C3.50619 7.17673 3.57643 7.3463 3.70145 7.47132C3.82647 7.59635 3.99604 7.66658 4.17285 7.66658H9.50619C9.683 7.66658 9.85257 7.59635 9.97759 7.47132C10.1026 7.3463 10.1729 7.17673 10.1729 6.99992C10.1729 6.82311 10.1026 6.65354 9.97759 6.52851C9.85257 6.40349 9.683 6.33325 9.50619 6.33325Z" fill="black"/>
</svg>
