<svg width="20" height="20" viewBox="0 0 20 20" fill="none" xmlns="http://www.w3.org/2000/svg">
<g id="Group 557">
<path id="Vector" d="M3.46953 15.4244L3.77713 15.7852L18 10H18.5C18.5 9.99988 18.5 9.99977 18.5 9.99966C18.4999 7.65144 17.6689 5.63648 16.0166 3.98352C14.3642 2.33036 12.349 1.49929 9.99984 1.5C7.6509 1.50071 5.63584 2.33205 3.98344 3.98445C2.33104 5.63685 1.5 7.65163 1.5 10C1.5 11.0396 1.67219 12.0244 2.01989 12.9507C2.36496 13.87 2.84809 14.6956 3.46953 15.4244ZM10.0007 10.5H9.99999C9.14472 10.5 8.44384 10.2122 7.86538 9.63427C7.28719 9.05665 6.99942 8.3561 7 7.50034C7.00058 6.64419 7.2888 5.9433 7.86655 5.36555C8.44429 4.78782 9.14473 4.5 9.99999 4.5C10.8551 4.5 11.5559 4.78805 12.1344 5.36655C12.7129 5.94504 13.0006 6.64543 13 7.49966C12.9994 8.35444 12.7115 9.05564 12.1339 9.63497C11.5572 10.2134 10.8569 10.5012 10.0007 10.5ZM10.0005 19.5H9.99999C8.68178 19.5 7.44954 19.2501 6.2982 18.753C5.13701 18.2516 4.13194 17.5742 3.27842 16.7213C2.42509 15.8686 1.74784 14.8637 1.24717 13.7021C0.750566 12.5499 0.500637 11.3174 0.500001 9.99976C0.499366 8.68241 0.749231 7.45029 1.24699 6.29832C1.74907 5.13633 2.42649 4.13125 3.27868 3.27842C4.13069 2.42578 5.13557 1.74849 6.29802 1.24712C7.45086 0.749884 8.68319 0.5 9.99999 0.5C11.3168 0.5 12.5491 0.749884 13.702 1.24712C14.8644 1.74849 15.8693 2.42578 16.7213 3.27842C17.5735 4.13129 18.2513 5.13645 18.7541 6.29853C19.2524 7.4503 19.5019 8.68217 19.5 9.99927C19.4981 11.3173 19.2481 12.55 18.7526 13.7025C18.2534 14.8638 17.5763 15.8685 16.7218 16.7211C15.8667 17.5742 14.8614 18.2521 13.7014 18.7541C12.5518 19.2517 11.3199 19.5013 10.0005 19.5Z" fill="#194185" stroke="#194185"/>
</g>
</svg>
