<svg width="37" height="39" viewBox="0 0 37 39" fill="none" xmlns="http://www.w3.org/2000/svg">
<g clip-path="url(#clip0_693_2657)">
<path d="M8.09766 31.1518H10.1585V28.9951H11.093C12.5787 28.9951 13.8248 27.9168 13.8248 26.4551C13.8248 24.9933 12.6266 23.939 11.093 23.939H8.09766V31.1278V31.1518ZM10.1585 27.3417V25.6164H10.8773C11.3566 25.6164 11.764 25.9279 11.764 26.4551C11.764 26.9822 11.3806 27.3177 10.8773 27.3177H10.1585V27.3417ZM15.7418 31.1518H18.5934C20.9897 31.1518 22.4754 29.738 22.4754 27.5094C22.4754 25.4247 20.9897 23.9629 18.5934 23.9629H15.7418V31.1518ZM17.8026 29.4504V25.6403H18.4975C19.2883 25.6403 20.3666 26.0237 20.3666 27.5094C20.3666 29.067 19.2883 29.4504 18.4975 29.4504H17.8026ZM24.8717 31.1518H26.9325V28.5878H29.4725V26.9343H26.9325V25.6403H29.832V23.9869H24.8956V31.1758L24.8717 31.1518Z" fill="black"/>
<path d="M30.863 38.3406H6.90009C4.91118 38.3406 3.30566 36.7351 3.30566 34.7462V3.59443C3.30566 1.60551 4.91118 0 6.90009 0H23.8898C24.8483 0 25.7589 0.383406 26.4298 1.05437L33.403 8.02756C34.074 8.69852 34.4574 9.60911 34.4574 10.5676V34.7462C34.4574 36.7351 32.8519 38.3406 30.863 38.3406ZM6.90009 2.39629C6.22913 2.39629 5.70195 2.92347 5.70195 3.59443V34.7462C5.70195 35.4171 6.22913 35.9443 6.90009 35.9443H30.863C31.5339 35.9443 32.0611 35.4171 32.0611 34.7462V10.5676C32.063 10.4105 32.032 10.2547 31.9701 10.1102C31.9082 9.9658 31.8168 9.83591 31.7017 9.72892L24.7285 2.75573C24.5072 2.52998 24.2058 2.40079 23.8898 2.39629H6.90009Z" fill="black"/>
<path d="M32.9713 11.9815H25.9981C24.0571 11.9815 22.4756 10.3999 22.4756 8.45893V1.48574C22.4756 0.814781 23.0028 0.287598 23.6737 0.287598C24.3447 0.287598 24.8719 0.814781 24.8719 1.48574V8.45893C24.8719 9.08197 25.3751 9.58519 25.9981 9.58519H32.9713C33.6423 9.58519 34.1695 10.1124 34.1695 10.7833C34.1695 11.4543 33.6423 11.9815 32.9713 11.9815Z" fill="black"/>
</g>
<defs>
<clipPath id="clip0_693_2657">
<rect width="35.9443" height="38.3406" fill="white" transform="translate(0.90918)"/>
</clipPath>
</defs>
</svg>
