<svg width="14" height="14" viewBox="0 0 14 14" fill="none" xmlns="http://www.w3.org/2000/svg">
<path d="M7.17253 0.333252C5.85399 0.333252 4.56506 0.724245 3.46873 1.45679C2.3724 2.18933 1.51792 3.23052 1.01333 4.4487C0.508748 5.66687 0.376726 7.00731 0.633961 8.30052C0.891195 9.59373 1.52613 10.7816 2.45848 11.714C3.39083 12.6463 4.57872 13.2813 5.87193 13.5385C7.16513 13.7957 8.50558 13.6637 9.72375 13.1591C10.9419 12.6545 11.9831 11.8 12.7157 10.7037C13.4482 9.60739 13.8392 8.31846 13.8392 6.99992C13.8392 6.12444 13.6668 5.25753 13.3317 4.4487C12.9967 3.63986 12.5056 2.90493 11.8866 2.28587C11.2675 1.66682 10.5326 1.17575 9.72375 0.840722C8.91492 0.50569 8.04801 0.333252 7.17253 0.333252ZM7.17253 12.3333C6.1177 12.3333 5.08655 12.0205 4.20949 11.4344C3.33243 10.8484 2.64884 10.0154 2.24517 9.0409C1.8415 8.06636 1.73589 6.994 1.94167 5.95944C2.14746 4.92487 2.65541 3.97456 3.40129 3.22868C4.14717 2.4828 5.09748 1.97485 6.13205 1.76906C7.16661 1.56328 8.23897 1.66889 9.21351 2.07256C10.188 2.47623 11.021 3.15982 11.607 4.03688C12.1931 4.91394 12.5059 5.94508 12.5059 6.99992C12.5059 8.41441 11.944 9.77096 10.9438 10.7712C9.94357 11.7713 8.58702 12.3333 7.17253 12.3333ZM9.8392 6.33325H7.8392V4.33325C7.8392 4.15644 7.76896 3.98687 7.64393 3.86185C7.51891 3.73682 7.34934 3.66658 7.17253 3.66658C6.99572 3.66658 6.82615 3.73682 6.70113 3.86185C6.5761 3.98687 6.50586 4.15644 6.50586 4.33325V6.33325H4.50586C4.32905 6.33325 4.15948 6.40349 4.03446 6.52851C3.90943 6.65354 3.8392 6.82311 3.8392 6.99992C3.8392 7.17673 3.90943 7.3463 4.03446 7.47132C4.15948 7.59635 4.32905 7.66658 4.50586 7.66658H6.50586V9.66658C6.50586 9.8434 6.5761 10.013 6.70113 10.138C6.82615 10.263 6.99572 10.3333 7.17253 10.3333C7.34934 10.3333 7.51891 10.263 7.64393 10.138C7.76896 10.013 7.8392 9.8434 7.8392 9.66658V7.66658H9.8392C10.016 7.66658 10.1856 7.59635 10.3106 7.47132C10.4356 7.3463 10.5059 7.17673 10.5059 6.99992C10.5059 6.82311 10.4356 6.65354 10.3106 6.52851C10.1856 6.40349 10.016 6.33325 9.8392 6.33325Z" fill="black"/>
</svg>
