<svg width="40" height="38" viewBox="0 0 40 38" fill="none" xmlns="http://www.w3.org/2000/svg">
<path d="M13.3 37L1 24.7C0.666667 24.3667 0.416667 24 0.25 23.6C0.0833333 23.2 0 22.7833 0 22.35C0 21.9167 0.0833333 21.5 0.25 21.1C0.416667 20.7 0.666667 20.3333 1 20L12.5 8.55L7.2 3.25L10.3 0L30.3 20C30.6333 20.3333 30.8753 20.7 31.026 21.1C31.1767 21.5 31.2513 21.9167 31.25 22.35C31.2487 22.7833 31.174 23.2 31.026 23.6C30.878 24 30.636 24.3667 30.3 24.7L18 37C17.6667 37.3333 17.3 37.5833 16.9 37.75C16.5 37.9167 16.0833 38 15.65 38C15.2167 38 14.8 37.9167 14.4 37.75C14 37.5833 13.6333 37.3333 13.3 37ZM15.65 11.7L4.95 22.4H26.35L15.65 11.7ZM35.6 38C34.4 38 33.3833 37.5747 32.55 36.724C31.7167 35.8733 31.3 34.832 31.3 33.6C31.3 32.7 31.5253 31.85 31.976 31.05C32.4267 30.25 32.9347 29.4667 33.5 28.7L35.6 26L37.8 28.7C38.3333 29.4667 38.8333 30.25 39.3 31.05C39.7667 31.85 40 32.7 40 33.6C40 34.8333 39.5667 35.8753 38.7 36.726C37.8333 37.5767 36.8 38.0013 35.6 38Z" fill="#545454"/>
</svg>
