<svg width="14" height="20" viewBox="0 0 14 20" fill="none" xmlns="http://www.w3.org/2000/svg">
<path d="M7 12.5C6.16667 12.5 5.45833 12.2083 4.875 11.625C4.29167 11.0417 4 10.3333 4 9.5V3.5C4 2.66667 4.29167 1.95833 4.875 1.375C5.45833 0.791667 6.16667 0.5 7 0.5C7.83333 0.5 8.54167 0.791667 9.125 1.375C9.70833 1.95833 10 2.66667 10 3.5V9.5C10 10.3333 9.70833 11.0417 9.125 11.625C8.54167 12.2083 7.83333 12.5 7 12.5ZM6 19.5V16.425C4.26667 16.1917 2.83333 15.4167 1.7 14.1C0.566667 12.7833 0 11.25 0 9.5H2C2 10.8833 2.4875 12.0625 3.4625 13.0375C4.4375 14.0125 5.61667 14.5 7 14.5C8.38333 14.5 9.5625 14.0125 10.5375 13.0375C11.5125 12.0625 12 10.8833 12 9.5H14C14 11.25 13.4333 12.7833 12.3 14.1C11.1667 15.4167 9.73333 16.1917 8 16.425V19.5H6Z" fill="#49454F"/>
</svg>
